<svg width="205" height="23" xmlns="http://www.w3.org/2000/svg" xmlns:xlink="http://www.w3.org/1999/xlink"><defs><path id="a" d="M0 .02h11.322v20.586H0z"/><path id="c" d="M.154.03h20.562v22.278H.154z"/></defs><g fill="none" fill-rule="evenodd"><path d="M184.235 21.502c-1.231.71-2.805.289-3.515-.942l-3.95-6.843a2.574 2.574 0 0 1 4.457-2.574l3.95 6.843a2.575 2.575 0 0 1-.942 3.516" fill="#565E6B"/><path d="M50.821 21.901a2.574 2.574 0 0 1-2.573-2.574V3.883a2.574 2.574 0 0 1 5.146 0v15.444a2.574 2.574 0 0 1-2.573 2.574" fill="#222A38"/><path d="M68.02 2.027a2.572 2.572 0 0 0-3.641 0L58.482 7.93l-2.727 2.729c-.31.308-.566.669-.755 1.067a3.86 3.86 0 0 0 3.479 5.521h.003c.223 0 .438-.017.648-.055-.033-.01-.063-.024-.095-.036a1.888 1.888 0 0 0 1.339-1.803c0-.559-.247-1.057-.633-1.403l2.224-2.228.154-.154 5.901-5.903a2.574 2.574 0 0 0 0-3.638" fill="#565E6B"/><path d="M48.94 2.027a2.572 2.572 0 0 1 3.641 0l5.897 5.903 2.728 2.729c.309.308.566.669.755 1.067a3.86 3.86 0 0 1-4.13 5.466c.519-.155.896-.64.896-1.21a1.26 1.26 0 0 0-.411-.935l-3.32-3.325-.154-.154-5.902-5.903a2.574 2.574 0 0 1 0-3.638M37.097 16.753h-3.43V6.457h3.43a2.574 2.574 0 0 1 2.574 2.574v5.148a2.574 2.574 0 0 1-2.574 2.574zm7.72-7.722a7.72 7.72 0 0 0-7.72-7.722h-6a2.435 2.435 0 0 0-2.577 2.45v15.568a2.58 2.58 0 0 0 2.585 2.574h5.992a7.721 7.721 0 0 0 7.72-7.721V9.03zM22.516 21.901a2.574 2.574 0 0 1-2.574-2.574V3.883a2.574 2.574 0 0 1 5.147 0v15.444a2.574 2.574 0 0 1-2.573 2.574M147.746 1.31h-11.91c-1.317 0-2.494.945-2.652 2.251a2.575 2.575 0 0 0 2.553 2.896h3.431V19.23c0 1.317.945 2.494 2.252 2.653a2.574 2.574 0 0 0 2.895-2.555V6.457h3.333c1.316 0 2.493-.945 2.651-2.251a2.575 2.575 0 0 0-2.553-2.897M164.9 16.753h-6.004V14.18h4.191c1.316 0 2.493-.945 2.652-2.251a2.575 2.575 0 0 0-2.554-2.897h-4.289V6.457h6.02c1.008 0 1.961-.57 2.342-1.504.76-1.864-.591-3.644-2.357-3.644h-8.686a2.465 2.465 0 0 0-2.465 2.466v15.56a2.574 2.574 0 0 0 2.573 2.574c.053 0 .105-.004.158-.008h8.322c1.316 0 2.493-.945 2.651-2.252a2.575 2.575 0 0 0-2.553-2.896" fill="#222A38"/><path d="M7.44 21.709a2.574 2.574 0 0 1-1.538-3.3L11.52 2.97a2.574 2.574 0 1 1 4.836 1.761l-5.618 15.44a2.573 2.573 0 0 1-3.298 1.538" fill="#565E6B"/><path d="M10.928 18.473a.426.426 0 0 1-.378-.227l-.043-.116v-.004l-2.316-6.362-3.199-8.795a2.573 2.573 0 0 0-3.298-1.536A2.567 2.567 0 0 0 0 3.853c0 .292.047.588.154.88l5.58 15.327.039.112c.012.039.03.073.047.112.017.047.038.09.06.132.026.06.056.117.09.172.03.056.064.112.103.163a2.376 2.376 0 0 0 .502.54 2.242 2.242 0 0 0 .488.31c.04.021.082.038.12.055.043.017.082.035.125.047.004.005.009.01.013.01.051.017.107.033.158.046a2.457 2.457 0 0 0 1.29.034c.049-.008.091-.02.134-.034.048-.008.09-.025.138-.042a.073.073 0 0 0 .03-.01l.103-.038c.051-.021.098-.042.145-.069.056-.025.112-.055.168-.09.055-.03.111-.064.163-.102.055-.034.107-.074.158-.116.052-.039.099-.082.146-.129a2.513 2.513 0 0 0 .61-.88l.046-.111.712-1.96a.424.424 0 0 1-.394.261" fill="#FFF"/><g transform="translate(0 1.257)"><mask id="b" fill="#fff"><use xlink:href="#a"/></mask><path d="M11.322 16.955l-.712 1.96-.047.112c-.017.043-.039.09-.06.133a1.65 1.65 0 0 1-.09.171 2.478 2.478 0 0 1-.459.575 1.41 1.41 0 0 1-.146.129 1.414 1.414 0 0 1-.158.116 1.249 1.249 0 0 1-.163.102 1.449 1.449 0 0 1-.168.09 1.423 1.423 0 0 1-.278.117c-.048.017-.09.034-.138.043a2.463 2.463 0 0 1-1.424 0 2.47 2.47 0 0 1-.158-.048c-.005 0-.009-.004-.013-.008-.043-.013-.082-.03-.124-.048-.04-.017-.082-.034-.12-.056a2.275 2.275 0 0 1-.489-.308 2.376 2.376 0 0 1-.502-.54 1.3 1.3 0 0 1-.103-.164 1.335 1.335 0 0 1-.09-.171 1.292 1.292 0 0 1-.06-.133c-.017-.04-.035-.073-.047-.112l-.039-.111-2.548-6.993L.154 3.476A2.538 2.538 0 0 1 0 2.596C0 1.54.648.554 1.694.176a2.572 2.572 0 0 1 3.298 1.537l2.415 6.636.784 2.158 2.316 6.362v.004l.043.116a.426.426 0 0 0 .378.227c.18 0 .33-.107.394-.261" fill="#222A38" mask="url(#b)"/></g><path d="M99.768 11.12l-.056-.067v-6.96a.43.43 0 0 1 .558-.408l1.405 1.684c-1.337 1.773-1.762 4.239-1.898 5.657l-.01.093z" fill="#C4C8CC"/><path fill="#565E6B" d="M107.939 20.923L97.089 7.906l-.034-4.06 1.976-1.648 12.86 15.428z"/><path d="M101.55 5.21c-1.367 1.777-1.636 4.383-1.773 5.816l-.065-.077V4.093a.43.43 0 0 1 .72-.317l1.119 1.435z" fill="#40484F"/><path d="M108.007 20.91a3.005 3.005 0 0 0 .18.197c.55.556 1.354.857 2.225.724 1.2-.182 2.166-1.416 2.166-2.63V3.845a2.574 2.574 0 0 0-2.9-2.554c-1.304.16-2.246 1.337-2.246 2.651V19.04a.43.43 0 0 1-.725.313l1.3 1.557zM99.138 2.223c-.005-.009-.013-.017-.022-.026a3.005 3.005 0 0 0-.158-.172c-.602-.606-1.506-.91-2.47-.675-1.15.28-1.922 1.365-1.922 2.548v.026a14.436 14.436 0 0 1 1.639 5.883l.053.908a14.63 14.63 0 0 1 0 1.702l-.053.912a14.44 14.44 0 0 1-1.639 5.883v.076a2.574 2.574 0 0 0 2.9 2.554c1.304-.16 2.246-1.337 2.246-2.651V4.093a.43.43 0 0 1 .725-.313l-1.3-1.557z" fill="#222A38"/><path d="M58.727 15.982c0 .455-.24.858-.605 1.077-.309-2.213-2.166-2.968-3.474-3.222a3.85 3.85 0 0 1-.026-.45c0-.596.133-1.159.378-1.66l3.315 3.32a1.26 1.26 0 0 1 .412.935" fill="#40484F"/><path d="M67.197 13.47l-.054-.908a14.528 14.528 0 0 1 0-1.701l.054-.913a14.436 14.436 0 0 1 1.637-5.879v-.082a2.599 2.599 0 0 0-.18-.948c-.005-.01-.01-.018-.01-.027a3.444 3.444 0 0 0-.106-.222c-.03-.06-.069-.12-.108-.18a2.508 2.508 0 0 0-.35-.443l-.443-.351c-.06-.04-.12-.078-.18-.108a3.454 3.454 0 0 0-.223-.107l-.026-.008a2.735 2.735 0 0 0-.214-.073l-.734-.107a2.6 2.6 0 0 0-1.299.351c-.047.03-.095.056-.141.09-.134.09-.262.198-.378.313h-.004l-1.48 1.48a.43.43 0 0 1 .73.308v15.476a2.573 2.573 0 1 0 5.146 0v-.08a14.44 14.44 0 0 1-1.637-5.88" fill="#222A38"/><g transform="translate(71.192 .399)"><mask id="d" fill="#fff"><use xlink:href="#c"/></mask><path d="M10.435 22.308c-.227 0-.455-.008-.68-.023-5.131-.342-9.228-4.472-9.53-9.607L.17 11.77a10.415 10.415 0 0 1 0-1.203l.054-.907C.527 4.525 4.624.395 9.755.053a9.93 9.93 0 0 1 1.362 0c5.13.342 9.226 4.472 9.528 9.607l.053.908c.024.398.024.803 0 1.203l-.053.907c-.302 5.135-4.399 9.265-9.53 9.607-.225.015-.453.023-.68.023" fill="#222A38" mask="url(#d)"/></g><path d="M123.67 21.917c-2.861 0-5.438-1.258-6.762-3.315a2.546 2.546 0 0 1 .797-3.54 2.645 2.645 0 0 1 2.901.075c.448.316.672.818 1.118 1.127.489.338 1.097.48 1.683.513.686.037 1.393-.064 2.001-.384.397-.21.759-.367.759-1.024 0-.323-.237-.607-.512-.777-.275-.17-.597-.244-.913-.311-2.11-.451-4.282-.597-6.136-1.812-1.354-.887-2.357-2.238-2.612-3.857a5.701 5.701 0 0 1-.069-.824c-.03-2.847 2.084-5.255 5.383-6.134 3.446-.918 6.964.124 8.958 2.658a2.544 2.544 0 0 1-.455 3.598 2.62 2.62 0 0 1-3.644-.45c-.698-.887-1.816-1.365-2.937-1.336-.888.022-2.495.4-2.112 1.61.234.738.812.767 1.608.958.408.098.877.169 1.373.245 1.541.235 3.459.529 5.096 1.877a5.913 5.913 0 0 1 1.365 7.555c-1.249 2.153-3.74 3.478-6.666 3.545a9.7 9.7 0 0 1-.223.003M197.008 21.917c-2.862 0-5.439-1.258-6.764-3.315a2.546 2.546 0 0 1 .798-3.54 2.645 2.645 0 0 1 2.901.075c.448.316.672.818 1.118 1.127.489.338 1.097.48 1.683.513.686.037 1.392-.064 2.001-.384.397-.21.759-.367.759-1.024 0-.323-.237-.607-.512-.777-.275-.17-.597-.244-.913-.311-2.11-.451-4.283-.597-6.136-1.812-1.354-.887-2.357-2.238-2.613-3.857a5.701 5.701 0 0 1-.068-.824c-.03-2.847 2.084-5.255 5.383-6.134 3.446-.918 6.964.124 8.958 2.658a2.544 2.544 0 0 1-.456 3.598 2.62 2.62 0 0 1-3.643-.45c-.698-.887-1.817-1.365-2.937-1.336-.888.022-2.495.4-2.112 1.61.233.738.811.767 1.608.958.407.098.877.169 1.373.245 1.541.235 3.459.529 5.096 1.877a5.913 5.913 0 0 1 1.365 7.555c-1.249 2.153-3.74 3.478-6.666 3.545a9.7 9.7 0 0 1-.223.003" fill="#222A38"/><path d="M81.763 17.567c-2.39 0-4.506-1.466-5.266-3.647-.632-1.815-.707-4.462.55-6.284C78.056 6.173 79.755 5.3 81.592 5.3c2.346.017 4.406 1.375 5.166 3.38.633 1.666.714 4.283-.531 6.375-.95 1.596-2.577 2.512-4.464 2.512z" fill="#7237A6"/><path d="M86.342 15.047a7.085 7.085 0 0 0 .838-2.205c-.378-1.911-2.301-3.38-4.616-3.381l-1.837-.003c-2.31-.002-4.242 1.454-4.645 3.357.075.377.171.737.287 1.069.749 2.149 2.783 3.616 5.115 3.728h.319a6.49 6.49 0 0 0 1.312-.158c.153-.037.303-.09.454-.137a5.156 5.156 0 0 0 2.773-2.27" fill="#222A38"/><path d="M86.862 8.979a5.563 5.563 0 0 0-.103-.3c-.701-1.847-2.508-3.143-4.624-3.348-.185-.013-.368-.029-.561-.03-1.83.006-3.521.878-4.527 2.335-.279.404-.489.85-.645 1.317.478.548 1.14.923 1.639.65.288-.158.08-1.135.064-1.818a.643.643 0 0 0 .002-.087c-.018.302.2.587.569.742.368.155.829.156 1.198.002.37-.154.592-.438.576-.74-.018.302.2.587.569.742.369.155.829.156 1.199.002.37-.154.59-.438.574-.74-.018.302.202.587.57.742.37.155.83.156 1.2.002s.592-.438.575-.74a.587.587 0 0 0 .032.227c-.04.67-.21 1.53.059 1.677.494.273 1.153-.094 1.634-.635" fill="#FFF"/><path d="M86.227 15.055c.133-.224.249-.455.352-.69-1.33-.889-3.097-1.401-4.958-1.404-1.856-.003-3.62.501-4.955 1.38.86 1.92 2.812 3.19 5.008 3.223a6.33 6.33 0 0 0 1.404-.16c.15-.036.296-.087.443-.135a5.028 5.028 0 0 0 2.706-2.214" fill="#FFB3B9"/><path d="M78.881 13.335c-.894.283-1.63.618-2.22.998a5.243 5.243 0 0 0 .319.599 5.404 5.404 0 0 0 .307.453c.115.152.24.296.37.433l.059.06a5.667 5.667 0 0 0 .41.382c.154.128.315.248.482.358l.008.006a5.68 5.68 0 0 0 1.67.748h.001c-1.591-.898-2.065-2.241-1.406-4.037" fill="#ED8E96"/><path d="M81.574 5.302a5.59 5.59 0 0 0-3.304 1.086c.988-.485 2.113-.646 3.261-.656 1.168-.01 2.335.171 3.286.546a5.82 5.82 0 0 0-2.682-.947c-.185-.014-.368-.029-.561-.03" fill="#9FA8AD"/><path d="M179.309 1.31c3.297 0 6.193 2.41 6.564 5.687a6.442 6.442 0 0 1-6.39 7.182h-2.145c-.947 0-1.715.769-1.715 1.716v3.432a2.574 2.574 0 0 1-2.896 2.555c-1.306-.16-2.25-1.336-2.25-2.653V4.592c0-.96.358-1.9 1.047-2.568.752-.732 2.227-.715 2.383-.715h5.402zm.066 8.164c.95-.016 1.898-.782 1.898-1.895s-.949-1.895-1.898-1.895h-3.796v3.79c1.898.01 3.163.01 3.796 0z" fill="#222A38"/><path d="M182.789 13.883c-1.729.593-3.242 1.609-4.439 2.608l-1.334-2.312h2.38a6.358 6.358 0 0 0 3.101-.798l.292.502z" fill="#9FA8AD"/><path d="M182.789 13.883c-1.729.593-3.242 1.609-4.439 2.608l-1.334-2.312h2.38a6.358 6.358 0 0 0 3.101-.798l.292.502z" fill="#40484F"/></g></svg>
